<svg xmlns="http://www.w3.org/2000/svg" xmlns:xlink="http://www.w3.org/1999/xlink" contentStyleType="text/css" data-diagram-type="STATE" height="834px" preserveAspectRatio="none" style="width:1295px;height:834px;background:#FFFFFF;" version="1.1" viewBox="0 0 1295 834" width="1295px" zoomAndPan="magnify"><title>&#1044;&#1080;&#1072;&#1075;&#1088;&#1072;&#1084;&#1084;&#1072; &#1089;&#1086;&#1089;&#1090;&#1086;&#1103;&#1085;&#1080;&#1081; &#1087;&#1072;&#1088;&#1090;&#1080;&#1080; &#1087;&#1086;&#1083;&#1091;&#1092;&#1072;&#1073;&#1088;&#1080;&#1082;&#1072;&#1090;&#1072;</title><defs/><g><g class="title" data-source-line="1"><text fill="#000000" font-family="sans-serif" font-size="14" font-weight="bold" lengthAdjust="spacing" textLength="372.6953" x="454.456" y="22.9951">&#1044;&#1080;&#1072;&#1075;&#1088;&#1072;&#1084;&#1084;&#1072; &#1089;&#1086;&#1089;&#1090;&#1086;&#1103;&#1085;&#1080;&#1081; &#1087;&#1072;&#1088;&#1090;&#1080;&#1080; &#1087;&#1086;&#1083;&#1091;&#1092;&#1072;&#1073;&#1088;&#1080;&#1082;&#1072;&#1090;&#1072;</text></g><g id="start"><rect fill="#F1F1F1" height="50" rx="12.5" ry="12.5" style="stroke:#181818;stroke-width:0.5;" width="116.8105" x="547.73" y="124.2969"/><line style="stroke:#181818;stroke-width:0.5;" x1="547.73" x2="664.5405" y1="150.5938" y2="150.5938"/><text fill="#000000" font-family="sans-serif" font-size="14" lengthAdjust="spacing" textLength="96.8105" x="557.73" y="142.292">&#1055;&#1086;&#1089;&#1090;&#1091;&#1087;&#1083;&#1077;&#1085;&#1080;&#1077;</text></g><g id="active"><rect fill="#F1F1F1" height="50" rx="12.5" ry="12.5" style="stroke:#181818;stroke-width:0.5;" width="81.2705" x="565.5" y="266.2969"/><line style="stroke:#181818;stroke-width:0.5;" x1="565.5" x2="646.7705" y1="292.5938" y2="292.5938"/><text fill="#000000" font-family="sans-serif" font-size="14" lengthAdjust="spacing" textLength="61.2705" x="575.5" y="284.292">&#1040;&#1082;&#1090;&#1080;&#1074;&#1085;&#1072;</text></g><g id="expiring"><rect fill="#F1F1F1" height="50" rx="12.5" ry="12.5" style="stroke:#181818;stroke-width:0.5;" width="152.6787" x="29.8" y="408.2969"/><line style="stroke:#181818;stroke-width:0.5;" x1="29.8" x2="182.4787" y1="434.5938" y2="434.5938"/><text fill="#000000" font-family="sans-serif" font-size="14" lengthAdjust="spacing" textLength="132.6787" x="39.8" y="426.292">&#1048;&#1089;&#1090;&#1077;&#1082;&#1072;&#1077;&#1090; &#1089;&#1077;&#1075;&#1086;&#1076;&#1085;&#1103;</text></g><g id="expired"><rect fill="#F1F1F1" height="50" rx="12.5" ry="12.5" style="stroke:#181818;stroke-width:0.5;" width="107.7461" x="326.27" y="408.2969"/><line style="stroke:#181818;stroke-width:0.5;" x1="326.27" x2="434.0161" y1="434.5938" y2="434.5938"/><text fill="#000000" font-family="sans-serif" font-size="14" lengthAdjust="spacing" textLength="87.7461" x="336.27" y="426.292">&#1055;&#1088;&#1086;&#1089;&#1088;&#1086;&#1095;&#1077;&#1085;&#1072;</text></g><g id="blocked"><rect fill="#F1F1F1" height="50" rx="12.5" ry="12.5" style="stroke:#181818;stroke-width:0.5;" width="133.2715" x="837.5" y="535.2969"/><line style="stroke:#181818;stroke-width:0.5;" x1="837.5" x2="970.7715" y1="561.5938" y2="561.5938"/><text fill="#000000" font-family="sans-serif" font-size="14" lengthAdjust="spacing" textLength="113.2715" x="847.5" y="553.292">&#1047;&#1072;&#1073;&#1083;&#1086;&#1082;&#1080;&#1088;&#1086;&#1074;&#1072;&#1085;&#1072;</text></g><g id="moving"><rect fill="#F1F1F1" height="50" rx="12.5" ry="12.5" style="stroke:#181818;stroke-width:0.5;" width="130.4688" x="567.9" y="408.2969"/><line style="stroke:#181818;stroke-width:0.5;" x1="567.9" x2="698.3688" y1="434.5938" y2="434.5938"/><text fill="#000000" font-family="sans-serif" font-size="14" lengthAdjust="spacing" textLength="110.4688" x="577.9" y="426.292">&#1055;&#1077;&#1088;&#1077;&#1084;&#1077;&#1097;&#1072;&#1077;&#1090;&#1089;&#1103;</text></g><g id="consuming"><rect fill="#F1F1F1" height="50" rx="12.5" ry="12.5" style="stroke:#181818;stroke-width:0.5;" width="116.4961" x="1056.89" y="408.2969"/><line style="stroke:#181818;stroke-width:0.5;" x1="1056.89" x2="1173.3861" y1="434.5938" y2="434.5938"/><text fill="#000000" font-family="sans-serif" font-size="14" lengthAdjust="spacing" textLength="96.4961" x="1066.89" y="426.292">&#1057;&#1087;&#1080;&#1089;&#1099;&#1074;&#1072;&#1077;&#1090;&#1089;&#1103;</text></g><g id="utilized"><rect fill="#F1F1F1" height="50" rx="12.5" ry="12.5" style="stroke:#181818;stroke-width:0.5;" width="132.3896" x="883.94" y="695.2969"/><line style="stroke:#181818;stroke-width:0.5;" x1="883.94" x2="1016.3296" y1="721.5938" y2="721.5938"/><text fill="#000000" font-family="sans-serif" font-size="14" lengthAdjust="spacing" textLength="112.3896" x="893.94" y="713.292">&#1059;&#1090;&#1080;&#1083;&#1080;&#1079;&#1080;&#1088;&#1086;&#1074;&#1072;&#1085;&#1072;</text></g><g id="finished"><rect fill="#F1F1F1" height="50" rx="12.5" ry="12.5" style="stroke:#181818;stroke-width:0.5;" width="102.4619" x="1063.91" y="615.2969"/><line style="stroke:#181818;stroke-width:0.5;" x1="1063.91" x2="1166.3719" y1="641.5938" y2="641.5938"/><text fill="#000000" font-family="sans-serif" font-size="14" lengthAdjust="spacing" textLength="82.4619" x="1073.91" y="633.292">&#1047;&#1072;&#1074;&#1077;&#1088;&#1096;&#1077;&#1085;&#1072;</text></g><ellipse cx="606.14" cy="53.2969" fill="#222222" rx="10" ry="10" style="stroke:#222222;stroke-width:1;"/><ellipse cx="1032.14" cy="817.2969" fill="none" rx="11" ry="11" style="stroke:#222222;stroke-width:1;"/><ellipse cx="1032.14" cy="817.2969" fill="#222222" rx="6" ry="6" style="stroke:#222222;stroke-width:1;"/><!--link *start* to start--><g class="link" data-entity-1=".start." data-entity-2="start" data-source-line="13" data-uid="lnk3" id="link_.start._start"><path d="M606.14,63.6569 C606.14,77.5869 606.14,98.2469 606.14,117.9469" fill="none" id="*start*-to-start" style="stroke:#181818;stroke-width:1;"/><polygon fill="#181818" points="606.14,123.9469,610.14,114.9469,606.14,118.9469,602.14,114.9469,606.14,123.9469" style="stroke:#181818;stroke-width:1;"/></g><!--link start to active--><g class="link" data-entity-1="start" data-entity-2="active" data-source-line="14" data-uid="lnk4" id="link_start_active"><path d="M606.14,174.6869 C606.14,200.3769 606.14,234.5969 606.14,260.1869" fill="none" id="start-to-active" style="stroke:#181818;stroke-width:1;"/><polygon fill="#181818" points="606.14,266.1869,610.14,257.1869,606.14,261.1869,602.14,257.1869,606.14,266.1869" style="stroke:#181818;stroke-width:1;"/><text fill="#000000" font-family="sans-serif" font-size="13" lengthAdjust="spacing" textLength="103.7588" x="610.7486" y="217.3638">&#1055;&#1088;&#1080;&#1077;&#1084;&#1082;&#1072; &#1086;&#1090; &#1051;&#1062;</text><text fill="#000000" font-family="sans-serif" font-size="13" lengthAdjust="spacing" textLength="110.9761" x="607.14" y="232.4966">(&#1085;&#1077; &#1087;&#1088;&#1086;&#1089;&#1088;&#1086;&#1095;&#1077;&#1085;&#1072;)</text></g><!--link active to expiring--><g class="link" data-entity-1="active" data-entity-2="expiring" data-source-line="16" data-uid="lnk5" id="link_active_expiring"><path d="M565.1,292.9869 C438.67,295.5469 61.43,306.4769 25.14,346.2969 C6,367.2969 26.1983,387.5568 53.4383,404.6568" fill="none" id="active-to-expiring" style="stroke:#181818;stroke-width:1;"/><polygon fill="#181818" points="58.52,407.8469,53.0242,399.674,54.2853,405.1885,48.7708,406.4496,58.52,407.8469" style="stroke:#181818;stroke-width:1;"/><text fill="#000000" font-family="sans-serif" font-size="13" lengthAdjust="spacing" textLength="79.9551" x="43.6214" y="359.3638">&#1042; 00:00 &#1076;&#1085;&#1103;</text><text fill="#000000" font-family="sans-serif" font-size="13" lengthAdjust="spacing" textLength="114.918" x="26.14" y="374.4966">&#1080;&#1089;&#1090;&#1077;&#1095;&#1077;&#1085;&#1080;&#1103; &#1089;&#1088;&#1086;&#1082;&#1072;</text></g><!--link expiring to active--><g class="link" data-entity-1="expiring" data-entity-2="active" data-source-line="17" data-uid="lnk6" id="link_expiring_active"><path d="M134.04,408.0969 C158.66,388.1469 196.42,360.8369 234.14,346.2969 C348.32,302.2869 488.8012,293.8965 559.0112,292.4965" fill="none" id="expiring-to-active" style="stroke:#181818;stroke-width:1;"/><polygon fill="#181818" points="565.01,292.3769,555.932,288.5571,560.011,292.4766,556.0915,296.5555,565.01,292.3769" style="stroke:#181818;stroke-width:1;"/><text fill="#000000" font-family="sans-serif" font-size="13" lengthAdjust="spacing" textLength="85.7441" x="235.14" y="359.3638">&#1052;&#1077;&#1090;&#1082;&#1072; &#1089;&#1085;&#1103;&#1090;&#1072;</text><text fill="#000000" font-family="sans-serif" font-size="13" lengthAdjust="spacing" textLength="72.9536" x="241.5353" y="374.4966">(&#1090;&#1077;&#1093;&#1085;&#1086;&#1083;&#1086;&#1075;)</text></g><!--link active to expired--><g class="link" data-entity-1="active" data-entity-2="expired" data-source-line="19" data-uid="lnk7" id="link_active_expired"><path d="M565.26,294.3069 C496.84,298.6169 363.78,311.3869 335.14,346.2969 C319.75,365.0569 331.798,385.5575 348.888,403.7175" fill="none" id="active-to-expired" style="stroke:#181818;stroke-width:1;"/><polygon fill="#181818" points="353,408.0869,349.745,398.7914,349.5734,404.4457,343.9191,404.2741,353,408.0869" style="stroke:#181818;stroke-width:1;"/><text fill="#000000" font-family="sans-serif" font-size="13" lengthAdjust="spacing" textLength="79.9551" x="375.6415" y="359.3638">&#1042; 00:00 &#1076;&#1085;&#1103;</text><text fill="#000000" font-family="sans-serif" font-size="13" lengthAdjust="spacing" textLength="158.958" x="336.14" y="374.4966">&#1087;&#1086;&#1089;&#1083;&#1077; &#1080;&#1089;&#1090;&#1077;&#1095;&#1077;&#1085;&#1080;&#1103; &#1089;&#1088;&#1086;&#1082;&#1072;</text></g><!--link expired to blocked--><g class="link" data-entity-1="expired" data-entity-2="blocked" data-source-line="20" data-uid="lnk8" id="link_expired_blocked"><path d="M434.24,447.2069 C530.73,470.2169 726.3737,516.8948 831.3937,541.9448" fill="none" id="expired-to-blocked" style="stroke:#181818;stroke-width:1;"/><polygon fill="#181818" points="837.23,543.3369,829.4037,537.3579,832.3664,542.1768,827.5475,545.1396,837.23,543.3369" style="stroke:#181818;stroke-width:1;"/><text fill="#000000" font-family="sans-serif" font-size="13" lengthAdjust="spacing" textLength="105.0029" x="675.14" y="501.3638">&#1040;&#1074;&#1090;&#1086;&#1084;&#1072;&#1090;&#1080;&#1095;&#1077;&#1089;&#1082;&#1080;</text></g><!--link active to moving--><g class="link" data-entity-1="active" data-entity-2="moving" data-source-line="22" data-uid="lnk9" id="link_active_moving"><path d="M565.12,303.8269 C544.14,312.0269 520.49,325.3869 508.14,346.2969 C500.91,358.5469 500.33,366.4169 508.14,378.2969 C521.64,398.8369 539.1431,409.6357 561.8831,417.5457" fill="none" id="active-to-moving" style="stroke:#181818;stroke-width:1;"/><polygon fill="#181818" points="567.55,419.5169,560.3637,412.7821,562.8275,417.8742,557.7354,420.338,567.55,419.5169" style="stroke:#181818;stroke-width:1;"/><text fill="#000000" font-family="sans-serif" font-size="13" lengthAdjust="spacing" textLength="149.3477" x="509.14" y="366.8638">&#1053;&#1072;&#1095;&#1072;&#1083;&#1086; &#1087;&#1077;&#1088;&#1077;&#1084;&#1077;&#1097;&#1077;&#1085;&#1080;&#1103;</text></g><!--link moving to active--><g class="link" data-entity-1="moving" data-entity-2="active" data-source-line="23" data-uid="lnk10" id="link_moving_active"><path d="M651.42,407.8569 C662.09,390.4469 671.89,366.6369 663.14,346.2969 C658.29,335.0269 654.2237,329.0712 645.2537,320.8112" fill="none" id="moving-to-active" style="stroke:#181818;stroke-width:1;"/><polygon fill="#181818" points="640.84,316.7469,644.751,325.7859,644.5181,320.1338,650.1702,319.9009,640.84,316.7469" style="stroke:#181818;stroke-width:1;"/><text fill="#000000" font-family="sans-serif" font-size="13" lengthAdjust="spacing" textLength="184.7485" x="668.14" y="366.8638">&#1047;&#1072;&#1074;&#1077;&#1088;&#1096;&#1077;&#1085;&#1080;&#1077; &#1087;&#1077;&#1088;&#1077;&#1084;&#1077;&#1097;&#1077;&#1085;&#1080;&#1103;</text></g><!--link active to consuming--><g class="link" data-entity-1="active" data-entity-2="consuming" data-source-line="25" data-uid="lnk11" id="link_active_consuming"><path d="M647.18,291.9869 C710.88,293.0369 835.99,301.2869 930.14,346.2969 C949.45,355.5269 947.75,367.3469 966.14,378.2969 C994.15,394.9769 1022.4367,405.9858 1050.8767,414.9358" fill="none" id="active-to-consuming" style="stroke:#181818;stroke-width:1;"/><polygon fill="#181818" points="1056.6,416.7369,1049.2158,410.2197,1051.8306,415.236,1046.8143,417.8507,1056.6,416.7369" style="stroke:#181818;stroke-width:1;"/><text fill="#000000" font-family="sans-serif" font-size="13" lengthAdjust="spacing" textLength="167.3242" x="967.14" y="366.8638">&#1056;&#1072;&#1089;&#1093;&#1086;&#1076; &#1085;&#1072; &#1087;&#1088;&#1086;&#1080;&#1079;&#1074;&#1086;&#1076;&#1089;&#1090;&#1074;&#1086;</text></g><!--link consuming to active--><g class="link" data-entity-1="consuming" data-entity-2="active" data-source-line="26" data-uid="lnk12" id="link_consuming_active"><path d="M1132.8,407.9969 C1144.24,389.0469 1154.42,363.2069 1139.14,346.2969 C1106.28,309.9369 772.2874,297.0225 653.1274,293.5325" fill="none" id="consuming-to-active" style="stroke:#181818;stroke-width:1;"/><polygon fill="#181818" points="647.13,293.3569,656.009,297.6186,652.1279,293.5033,656.2432,289.6221,647.13,293.3569" style="stroke:#181818;stroke-width:1;"/><text fill="#000000" font-family="sans-serif" font-size="13" lengthAdjust="spacing" textLength="140.4673" x="1147.14" y="366.8638">&#1063;&#1072;&#1089;&#1090;&#1080;&#1095;&#1085;&#1086;&#1077; &#1089;&#1087;&#1080;&#1089;&#1072;&#1085;&#1080;&#1077;</text></g><!--link consuming to finished--><g class="link" data-entity-1="consuming" data-entity-2="finished" data-source-line="27" data-uid="lnk13" id="link_consuming_finished"><path d="M1115.14,458.6169 C1115.14,498.0769 1115.14,569.5769 1115.14,609.0069" fill="none" id="consuming-to-finished" style="stroke:#181818;stroke-width:1;"/><polygon fill="#181818" points="1115.14,615.0069,1119.14,606.0069,1115.14,610.0069,1111.14,606.0069,1115.14,615.0069" style="stroke:#181818;stroke-width:1;"/><text fill="#000000" font-family="sans-serif" font-size="13" lengthAdjust="spacing" textLength="140.3657" x="1116.14" y="501.3638">&#1055;&#1072;&#1088;&#1090;&#1080;&#1103; &#1079;&#1072;&#1082;&#1086;&#1085;&#1095;&#1080;&#1083;&#1072;&#1089;&#1100;</text></g><!--link blocked to utilized--><g class="link" data-entity-1="blocked" data-entity-2="utilized" data-source-line="29" data-uid="lnk14" id="link_blocked_utilized"><path d="M894.21,585.4569 C886.84,607.2269 879.85,639.6469 891.14,665.2969 C896.18,676.7369 900.4758,682.8204 909.7558,691.0704" fill="none" id="blocked-to-utilized" style="stroke:#181818;stroke-width:1;"/><polygon fill="#181818" points="914.24,695.0569,910.1714,686.0877,910.5032,691.7348,904.8561,692.0666,914.24,695.0569" style="stroke:#181818;stroke-width:1;"/><text fill="#000000" font-family="sans-serif" font-size="13" lengthAdjust="spacing" textLength="153.5308" x="892.14" y="637.3638">&#1054;&#1087;&#1077;&#1088;&#1072;&#1090;&#1086;&#1088; &#1087;&#1086;&#1076;&#1090;&#1074;&#1077;&#1088;&#1076;&#1080;&#1083;</text><text fill="#000000" font-family="sans-serif" font-size="13" lengthAdjust="spacing" textLength="83.5923" x="927.1092" y="652.4966">&#1091;&#1090;&#1080;&#1083;&#1080;&#1079;&#1072;&#1094;&#1080;&#1102;</text></g><!--link blocked to active--><g class="link" data-entity-1="blocked" data-entity-2="active" data-source-line="30" data-uid="lnk15" id="link_blocked_active"><path d="M907.04,534.9769 C910.83,490.8569 911.85,397.4869 861.14,346.2969 C831.64,316.5169 717.2841,302.1137 653.0141,296.1237" fill="none" id="blocked-to-active" style="stroke:#181818;stroke-width:1;"/><polygon fill="#181818" points="647.04,295.5669,655.63,300.3848,652.0184,296.0309,656.3724,292.4193,647.04,295.5669" style="stroke:#181818;stroke-width:1;"/><text fill="#000000" font-family="sans-serif" font-size="13" lengthAdjust="spacing" textLength="102.9844" x="908.14" y="430.3638">&#1056;&#1072;&#1079;&#1073;&#1083;&#1086;&#1082;&#1080;&#1088;&#1086;&#1074;&#1082;&#1072;</text><text fill="#000000" font-family="sans-serif" font-size="13" lengthAdjust="spacing" textLength="80.5708" x="919.3468" y="445.4966">&#1090;&#1077;&#1093;&#1085;&#1086;&#1083;&#1086;&#1075;&#1086;&#1084;</text></g><!--link utilized to *end*--><g class="link" data-entity-1="utilized" data-entity-2=".end." data-source-line="32" data-uid="lnk17" id="link_utilized_.end."><path d="M971.26,745.7569 C989.1,766.4369 1009.6493,790.245 1021.3893,803.845" fill="none" id="utilized-to-*end*" style="stroke:#181818;stroke-width:1;"/><polygon fill="#181818" points="1025.31,808.3869,1022.4569,798.9603,1022.0428,804.602,1016.4011,804.1879,1025.31,808.3869" style="stroke:#181818;stroke-width:1;"/></g><!--link finished to *end*--><g class="link" data-entity-1="finished" data-entity-2=".end." data-source-line="33" data-uid="lnk18" id="link_finished_.end."><path d="M1103.6,665.6269 C1084.98,704.8869 1051.7003,775.0453 1039.1703,801.4753" fill="none" id="finished-to-*end*" style="stroke:#181818;stroke-width:1;"/><polygon fill="#181818" points="1036.6,806.8969,1044.0698,800.478,1038.7419,802.3789,1036.841,797.051,1036.6,806.8969" style="stroke:#181818;stroke-width:1;"/></g><!--SRC=[ZLJBRXD14BpFLuno8aYHVCw17uav66U1LPmriZSHucGxW454SOIG4eb7G4ZaEjXUCTZ9vXTw_eZgddtZGsHvxPsfhgwkxfauZ7k1fazaoT32ZV2ymSTeDwRKZTq4pndTOlklfZioReGbIvPVKbgx4_SQ8RyHQ6c5xGaPfOPn9mxq5brv2dS2y9eIeKcsT6UeWHZ41UwSLi8w1yB8VgSRXyT10RWK9GbdeCHDM5n22mXOqgsRIKJmyaKu2ADdPN9eulJyd4foKmA3_G9tmVeXBmMxPJHac0BzfDVl7bJGLyW_0jiDVjzxDSZX9HpsZwi2Vg1gYyqFGbW5TllHyEYmYlqfzQ_n_RD1n54Szi9N3SrpLkBULIfx6aRXy3bWQk_XOxspywYqUH3BkxTLxsfnnqeTy5J3eeccp_Ih7Jq0NOBk_k_Ujb9PF5FbVZFPHzrgxRPQshUZ7KdPw5SMQTrCUofEfeh8kg8lR96eGNT1mwC4ESBp1Yofz6YnGKMmlr747HV0SwVleGSSp9Urc_dEQSxJpuU1cyEneCECr0JudZF-At1Jz0Kg-N1KnoHBgZ9mlUvcBwtOlp6-chYO8URuZjnZk8G3eRbLMVzadEQyAlNZdoh3wYgkXS7NoLudt0MPNvb3Y6g4viCcmvJV2p0M6GrSIj64gOmqyvugbJlBiVayS-oth5OZLyt8tojBKSlBI-PeHxXdoWDYt5kaEgjHbfN02s2Q9th5mzIS9UwkKeKQvi79KKLfsS8_]--></g></svg>